<svg xmlns="http://www.w3.org/2000/svg" viewBox="0 0 220 220"><defs><style>.cls-1{isolation:isolate;}.cls-2{fill:#ffedd8;}.cls-3{fill:#ffb533;}.cls-4{fill:#db4426;}.cls-5{fill:#ffa527;}.cls-6{fill:#ffc933;}.cls-7{opacity:0.3;mix-blend-mode:multiply;}.cls-8{fill:#c43720;}.cls-9{fill:#fc7659;}.cls-10{fill:#ee5837;}.cls-11{fill:#fff;}.cls-12{fill:#d37140;}.cls-13{fill:#c04b20;}.cls-14{fill:#ffead6;}</style></defs><title>Asset 39</title><g class="cls-1"><g id="Layer_2" data-name="Layer 2"><g id="Layer_1-2" data-name="Layer 1"><circle class="cls-2" cx="110" cy="110" r="110"/><path class="cls-3" d="M148,141.66c-5.6-18.4-4.76-29.73-4.76-29.73l-1.08-.08c-.27-2.26-.56-4.67-.87-7.28-11.09,1.64-21.62,3-30.81,4.06-9.19-1.07-19.72-2.42-30.81-4.06-.31,2.61-.59,5-.86,7.28l-1.09.08s.84,11.33-4.76,29.73C68,158,52,177.07,54.84,201.55c-.11,1.28-.18,2.45-.23,3.5A109.5,109.5,0,0,0,109.86,220h.38a109.53,109.53,0,0,0,56.15-15.54c-.06-.89-.12-1.87-.21-2.91C169,177.07,153,158,148,141.66Z"/><path class="cls-4" d="M145.5,130.63c-.19.14-19.39,14.07-40.3,14.07-21.13,0-31.38-4.62-31.48-4.67l-.9-.35-3.66,9.67c.49.23,12.3,5.65,36,5.65,24.26,0,42.66-13.49,43.53-14.13Z"/><circle class="cls-5" cx="106.67" cy="165.03" r="11.08" transform="translate(-78.45 230.93) rotate(-76.72)"/><circle class="cls-6" cx="104.68" cy="164.94" r="11.08" transform="translate(-85.97 122.33) rotate(-45)"/><path class="cls-5" d="M107.19,165.42c1.37.8,3-.38,3.63-1.56s.88-3.31-.63-4c-1.36-.65-2.83.48-3.48,1.63S105.82,164.63,107.19,165.42Z"/><path class="cls-5" d="M98,163.87c2.18,1.26,4.6-3,2.44-4.29S95.81,162.6,98,163.87Z"/><path class="cls-5" d="M102.82,162.86c2.74,1.64,5.87-3.92,3.13-5.52S100.09,161.25,102.82,162.86Z"/><path class="cls-5" d="M103.51,163.92c-2.21-.64-6.1.76-6.2,3.45-.07,1.95,1.6,1.92,3,1.93,1.78,0,2.16,1.06,3,2.43a1.8,1.8,0,0,0,2.89.6c1.07-.89,1.11-2.17,1.15-3.43C107.57,166.58,105.63,164.54,103.51,163.92Z"/><path class="cls-5" d="M111.38,166c-2.17-1.27-4.58,3-2.43,4.3S113.55,167.24,111.38,166Z"/><g id="Labrador_Retriever" data-name="Labrador Retriever"><path class="cls-6" d="M137.67,51.11c-6-4.59-16.71-7.23-27.67-7.23s-21.65,2.64-27.67,7.23C71.78,59.14,71.7,69.2,71.7,83.48c0,30.4,7,32.57,13,40.88a14.47,14.47,0,0,1,2.12,4.25c1,3.17,3.23,9.47,5.86,11.49C97.58,145.22,110,154.45,110,127c0,0,1.38,20.36,6.56,17.67,11.72-.24,16.1-10.57,17.63-16.29a24.79,24.79,0,0,1,5.23-9.92c4.43-5.08,8.65-9.69,8.88-34.94C148.42,69.2,148.22,59.14,137.67,51.11Z"/><path class="cls-3" d="M89.46,47.3c-5.34,1.27-7.69-2.44-10.88-2.49-2.85,0-11,7.88-11,7.88S43.74,65.23,42.42,75.08C41,85.55,57.79,98.85,62.07,107.25c1.6,3.12.43,13.83,3.94,13.83,9.73,0,8.72-17.34,7.62-27.22C71.88,78.09,80,54,80,54Z"/><path class="cls-6" d="M145.92,70.41c-6.34-14.82-19.27-14.84-18.08-21.83.26-1.53,2.71-1.28,2.71-1.28L145,52.69S149.84,68.33,145.92,70.41Z"/><path class="cls-3" d="M130.54,47.3c5.34,1.27,7.69-2.44,10.88-2.49,2.85,0,11.05,7.88,11.05,7.88s23.79,12.54,25.11,22.39c1.41,10.47-15.37,23.77-19.65,32.17-1.6,3.12-.43,13.83-3.94,13.83-9.73,0-8.72-17.34-7.62-27.22C148.12,78.09,140,54,140,54Z"/><g class="cls-7"><path class="cls-5" d="M61.27,99.38c-1.58-2.55-7.41-5.9-11.71-8.13,4.67,5.93,10.28,11.63,12.51,16C62.07,107.25,62.31,101.06,61.27,99.38Z"/></g><path class="cls-6" d="M132.14,119.5c0-.59-1.68-2.34-1.25-.86H89.24c.44-1.48-1.24.27-1.25.86-.21,8.7,5.51,10.05,10.21,21.85,3.08,7.72,7.51,3.52,11.86,13,3.68-9.43,9.4-4.91,12.25-12.71C126.74,129.45,132.34,129.08,132.14,119.5Z"/><path class="cls-8" d="M133.8,116.21c.48-2-1.07-3.09-2.21-.84H88.72c-1.13-2.25-2.93-1-2.34.84,4.09,13,6.11,10.62,12.35,21.72,3.58,6.36,7,3.65,11.33,13.07,3.68-9.42,8-6.18,11.62-12.9C127.78,126.92,130.76,129,133.8,116.21Z"/><path class="cls-9" d="M99.52,129.3c.67,5.68-2.72,18.31-.62,23.91,1.22,3.25,7.59,8.26,11.06,8.36s10.68-4.62,12-8c2.3-5.87-1.35-18.61-1.42-25.2l-10.43-2.28Z"/><path class="cls-10" d="M99.38,134.9s6.88-1.71,11,.48c3.53-1.83,10.65-.48,10.65-.48l.11-.31a49.79,49.79,0,0,1-.62-6.2l-10.43-2.28L99.52,129.3a28.66,28.66,0,0,1-.14,5.6Z"/><path class="cls-4" d="M110.46,131.87s0,.38,0,1c0,.33,0,.73,0,1.18s0,1,0,1.54,0,1.18-.05,1.83,0,1.33-.07,2c0,1.41-.11,2.91-.17,4.42,0,.75-.06,1.5-.08,2.24s0,1.47-.07,2.18,0,1.38,0,2v1.82c0,.56,0,1.08,0,1.54v1.19l0,1,0-1v-.55l0-.64c0-.46,0-1,0-1.54v-1.82c0-.65,0-1.33,0-2s0-1.43.06-2.17,0-1.5.07-2.25c.13-3,.26-6,.35-8.27l0-.81c0-.25,0-.5,0-.73,0-.45,0-.85,0-1.18C110.45,132.25,110.46,131.87,110.46,131.87Z"/><path class="cls-6" d="M132.19,115.26l-.05-1.92-22.08-.22L88,113.29l0,2c-.22,24.71,22.13,13.21,22.13,13.21S133.66,139,132.19,115.26Z"/><path class="cls-6" d="M117.82,114.78c-1.53-1.23-7.76,3.18-7.76,3.18s-6.22-4.41-7.75-3.18c-2,1.61-3.82,13.14-4.08,16.31,5.77.5,11.83-2.62,11.83-2.62s6,2.7,11.83,2.29C121.58,127.44,119.75,116.32,117.82,114.78Z"/><path class="cls-8" d="M132.25,115.25h-.13c.41,6.65-1.11,11.22-4.53,13.59s-7.92,2.08-11.17,1.47a32.33,32.33,0,0,1-6.33-1.91l0,.06,0-.06a28,28,0,0,1-5.83,2.08,20.7,20.7,0,0,1-4.67.58,11.48,11.48,0,0,1-6-1.52c-3.72-2.29-5.57-7.1-5.5-14.29h-.13c-.07,7.24,1.8,12.08,5.56,14.4a11.13,11.13,0,0,0,5.39,1.53l.69,0a20.49,20.49,0,0,0,4.73-.6,27.93,27.93,0,0,0,5.82-2.07,31.76,31.76,0,0,0,6.33,1.9,22.72,22.72,0,0,0,4.27.43c.51,0,1,0,1.49-.06a11.22,11.22,0,0,0,5.52-1.85C131.13,126.56,132.67,122,132.25,115.25Z"/><path class="cls-3" d="M101.92,108.43h16.16c-1.55-1.08-2.62-8-8.08-8C105.05,100.42,104,107.25,101.92,108.43Z"/><path class="cls-4" d="M110,122.78c4.88,0,12.19-9.68,9.75-13.91s-17.06-4.22-19.5,0S105.12,122.78,110,122.78Z"/><path class="cls-8" d="M107.54,112.24h0v-.06a2.45,2.45,0,0,0-4.9.09c0,.58-.85-.26-1.09,0,0,1.36,1.44,2.55,3.34,2.55a2.6,2.6,0,0,0,2.63-2.21,1.62,1.62,0,0,0,0-.31Z"/><path class="cls-8" d="M112.46,112.24h0v-.06a2.45,2.45,0,0,1,4.9.09c0,.58.85-.26,1.09,0,0,1.36-1.44,2.55-3.33,2.55a2.61,2.61,0,0,1-2.64-2.21c0-.1,0-.21,0-.31Z"/><path class="cls-8" d="M110,114.15v.37c0,.23,0,.56,0,1s0,.87,0,1.37V120c0,.5,0,1,0,1.36s0,.74,0,1v0c0-.23,0-.57,0-1s0-.86,0-1.36v-3.13c0-.5,0-1,0-1.37s0-.73,0-1Z"/></g><path class="cls-5" d="M158.73,99.38c1.58-2.55,7.41-5.9,11.71-8.13-4.67,5.93-10.28,11.63-12.51,16C157.93,107.25,157.69,101.06,158.73,99.38Z"/><path class="cls-3" d="M99.53,80.7c-.16-2.68-4.82-7.54-8-7.19-2.59.28-6.77,3.66-8.59,5.84-1.2,1.43-1,4.24-.62,7.46,1.47.79,3,5.09,6.87,5,2-.06,7.18-.34,7.52-2.28C97.16,86.93,99.66,83,99.53,80.7Z"/><path class="cls-3" d="M123.37,89.5c.34,1.94,5.55,2.22,7.52,2.28,3.85.12,5.39-4.18,6.86-5,.42-3.22.59-6-.61-7.46-1.82-2.18-6-5.56-8.59-5.84-3.18-.35-7.85,4.51-8,7.19C120.42,83,122.91,86.93,123.37,89.5Z"/><path class="cls-11" d="M94.71,86.74c-.08,2-2.39,4-4,4.22-5.83.7-6.88-4.09-7.73-4.19,1.53-.94,2.58-5.65,7-6.06C91.9,80.53,94,82.34,94.71,86.74Z"/><path class="cls-12" d="M89.55,90.36a4.83,4.83,0,0,0,.07-9.59c-3,.46-4.39,2.92-5.49,4.6a6.66,6.66,0,0,0,0,.77A4.85,4.85,0,0,0,89.55,90.36Z"/><path class="cls-13" d="M92,85.18a3,3,0,1,1-3.38-2.64A3,3,0,0,1,92,85.18Z"/><circle class="cls-14" cx="90.34" cy="84.58" r="0.99" transform="translate(-3.82 164.89) rotate(-83.57)"/><path class="cls-11" d="M125.66,86.59c.08,1.92,2.32,3.93,3.93,4.12,5.69.67,6.71-4,7.54-4.09-1.5-.92-2.51-5.51-6.88-5.91C128.39,80.54,126.32,82.3,125.66,86.59Z"/><path class="cls-12" d="M126.57,84.85A4.73,4.73,0,0,0,136,86a4.84,4.84,0,0,0,0-.76c-1.06-1.63-2.4-4-5.34-4.48A4.71,4.71,0,0,0,126.57,84.85Z"/><path class="cls-13" d="M134.19,85.79a3,3,0,1,1-2.57-3.29A2.95,2.95,0,0,1,134.19,85.79Z"/><circle class="cls-14" cx="132.8" cy="84.84" r="0.97" transform="translate(-14.6 29.11) rotate(-11.86)"/></g></g></g></svg>