<svg xmlns="http://www.w3.org/2000/svg" viewBox="0 0 220 220"><defs><style>.cls-1{isolation:isolate;}.cls-2{fill:#ffedd8;}.cls-3{fill:#ffb533;}.cls-4{fill:#ffc933;}.cls-5{fill:#ffa527;}.cls-6{opacity:0.3;mix-blend-mode:multiply;}.cls-7{fill:#db4426;}.cls-8{fill:#c43720;}.cls-9{fill:#fff;}.cls-10{fill:#d37140;}.cls-11{fill:#c04b20;}.cls-12{fill:#ffead6;}</style></defs><title>Asset 37</title><g class="cls-1"><g id="Layer_2" data-name="Layer 2"><g id="Layer_1-2" data-name="Layer 1"><circle class="cls-2" cx="110" cy="110" r="110"/><path class="cls-3" d="M148,142.31c-.08-.27-.15-.53-.23-.79-1.15-3.88-2-7.43-2.67-10.62a83.36,83.36,0,0,1-1.9-16.82c0-1,0-1.49,0-1.49l-1.08-.09-.87-7.27c-8,1.17-15.64,2.2-22.75,3.08q-4.17.52-8.06,1c-2.85-.33-5.83-.69-8.92-1.08-6.86-.85-14.24-1.84-21.89-3-.31,2.6-.59,5-.86,7.27l-1.09.09s.08,1.16,0,3.34A101.26,101.26,0,0,1,73.66,140c-.21.76-.44,1.52-.67,2.3a66.88,66.88,0,0,1-2.85,7.46c-6.47,14.66-17.71,31.58-15.3,52.43-.08,1-.15,2-.2,2.87h0A109.54,109.54,0,0,0,109.87,220h.35a109.47,109.47,0,0,0,56.13-15.52c0-.72-.1-1.47-.17-2.28C169,177.72,153,158.65,148,142.31Z"/><g id="Labrador_Retriever" data-name="Labrador Retriever"><path class="cls-4" d="M137.67,51.76c-6-4.59-16.71-7.23-27.67-7.23s-21.65,2.64-27.67,7.23c-10.55,8-10.63,18.09-10.63,32.38,0,33.09,7.09,30.6,13.35,41.13,0,0,1.09,8.72,2.87,10,5.18,2.69,22.07-7.6,22.08-7.61s16.9,10.3,22.08,7.61c1.78-1.23,2.87-10,2.87-10C140.51,114.74,148,118,148.3,84.14,148.42,69.85,148.22,59.79,137.67,51.76Z"/><path class="cls-4" d="M94.18,137.24c1.52,1.38,4.7,2.21,8.35,2a33.52,33.52,0,0,0,15.4,0c3.87-.05,6.65-.61,8.28-2,.53-4.37-16.21-6.92-16.21-6.92S93.3,133,94.18,137.24Z"/><path class="cls-5" d="M94.16,136.78v0c0,.06.16.36.34.7a7.2,7.2,0,0,0,2,1c3.75-.94,10.4-5.86,13.46-6.38,3.28.57,10,5.53,13.71,6.41a7,7,0,0,0,2.57-1.3,1.83,1.83,0,0,0-.3-1.21l-11.06-4.77c-2.72-.62-4.85-.94-4.85-.94s-1.83.29-4.24.84Z"/><path class="cls-3" d="M90.62,101c2.94-5.59,7.75-10.57,8.27-14.59,0-4.21,3.57-14-2.45-16.4-2-.8-5.93,2.49-7.57,3.4C86,75,82.24,75.25,81.43,84.22,82,88.47,85,95,87,100.72A2,2,0,0,0,90.62,101Z"/><path class="cls-3" d="M129.35,100.88c-2.9-5.36-7.73-10.55-8.24-14.49,0-4.21-3.57-14,2.46-16.4,2-.8,5.92,2.49,7.56,3.4,2.88,1.58,6.73,2,7.44,10.83C138,88.52,135,94.73,133,100.59A2,2,0,0,1,129.35,100.88Z"/><path class="cls-3" d="M89.46,48c-5.34,1.27-7.69-2.44-10.88-2.49-2.85,0-11,7.88-11,7.88S43.74,65.88,42.42,75.74C41,86.2,57.79,99.5,62.07,107.9c1.6,3.13.43,13.83,3.94,13.83,9.73,0,8.72-17.34,7.62-27.22C71.88,78.74,80,54.62,80,54.62Z"/><path class="cls-4" d="M145.92,71.06c-6.34-14.82-19.27-14.84-18.08-21.83.26-1.53,2.71-1.28,2.71-1.28L145,53.34S149.84,69,145.92,71.06Z"/><path class="cls-3" d="M130.54,48c5.34,1.27,7.69-2.44,10.88-2.49,2.85,0,11.05,7.88,11.05,7.88s23.79,12.54,25.11,22.4C179,86.2,162.21,99.5,157.93,107.9c-1.6,3.13-.43,13.83-3.94,13.83-9.73,0-8.72-17.34-7.62-27.22C148.12,78.74,140,54.62,140,54.62Z"/><g class="cls-6"><path class="cls-5" d="M61.27,100c-1.58-2.55-7.41-5.9-11.71-8.13,4.67,5.94,10.28,11.63,12.51,16C62.07,107.9,62.31,101.71,61.27,100Z"/></g><path class="cls-4" d="M127.74,118,110,118l-17.72,0c-4.56,5.35-8.16,18.27-.83,20.35,6,1.73,15.15-6.47,18.55-7.19,3.38.72,12.53,8.92,18.57,7.19C135.89,136.27,132.29,123.35,127.74,118Z"/><path class="cls-3" d="M110,131.16c2.82.6,9.66,6.41,15.36,7.31-.33-.11-13.93-6.26-7.65-21.65-1.38-1.14-7.71,5.42-7.71,5.42s-6.34-6.56-7.72-5.42c5.53,16.07-7.47,21.6-7.66,21.66C100.32,137.59,107.16,131.76,110,131.16Z"/><path class="cls-3" d="M101.92,109.08h16.16c-1.55-1.08-2.62-10.35-8.08-10.35C105.05,98.73,104,107.9,101.92,109.08Z"/><path class="cls-7" d="M110,123.43c4.88,0,12.19-9.68,9.75-13.91s-17.06-4.22-19.5,0S105.12,123.43,110,123.43Z"/><path class="cls-8" d="M107.54,112.89h0v-.06a2.45,2.45,0,0,0-4.9.09c0,.58-.85-.26-1.09,0,0,1.36,1.44,2.55,3.34,2.55a2.6,2.6,0,0,0,2.63-2.21,1.62,1.62,0,0,0,0-.31Z"/><path class="cls-8" d="M112.46,112.89h0v-.06a2.45,2.45,0,0,1,4.9.09c0,.58.85-.26,1.09,0,0,1.36-1.44,2.55-3.33,2.55a2.61,2.61,0,0,1-2.64-2.21c0-.1,0-.21,0-.31Z"/><path class="cls-8" d="M110,114.8v.37c0,.23,0,.56,0,1s0,.87,0,1.37v3.13c0,.5,0,1,0,1.36s0,.74,0,1v0c0-.23,0-.57,0-1s0-.86,0-1.36V117.5c0-.5,0-1,0-1.37s0-.73,0-1Z"/></g><path class="cls-5" d="M158.73,100c1.58-2.55,7.41-5.9,11.71-8.13-4.67,5.94-10.28,11.63-12.51,16C157.93,107.9,157.69,101.71,158.73,100Z"/><path class="cls-7" d="M145.5,130.63c-.19.14-19.39,14.07-40.3,14.07-21.13,0-31.38-4.62-31.48-4.67l-.9-.35-3.66,9.67c.49.23,12.3,5.65,36,5.65,24.26,0,42.66-13.49,43.53-14.13Z"/><circle class="cls-5" cx="106.67" cy="165.03" r="11.08" transform="translate(-78.45 230.93) rotate(-76.72)"/><circle class="cls-4" cx="104.68" cy="164.94" r="11.08" transform="translate(-85.97 122.33) rotate(-45)"/><path class="cls-5" d="M107.19,165.42c1.37.8,3-.38,3.63-1.56s.88-3.31-.63-4c-1.36-.65-2.83.48-3.48,1.63S105.82,164.63,107.19,165.42Z"/><path class="cls-5" d="M98,163.87c2.18,1.26,4.6-3,2.44-4.29S95.81,162.6,98,163.87Z"/><path class="cls-5" d="M102.82,162.86c2.74,1.64,5.87-3.92,3.13-5.52S100.09,161.25,102.82,162.86Z"/><path class="cls-5" d="M103.51,163.92c-2.21-.64-6.1.76-6.2,3.45-.07,1.95,1.6,1.92,3,1.93,1.78,0,2.16,1.06,3,2.43a1.8,1.8,0,0,0,2.89.6c1.07-.89,1.11-2.17,1.15-3.43C107.57,166.58,105.63,164.54,103.51,163.92Z"/><path class="cls-5" d="M111.38,166c-2.17-1.27-4.58,3-2.43,4.3S113.55,167.24,111.38,166Z"/><path class="cls-9" d="M94.67,85.07c-.08,2-2.38,4-4,4.21-5.83.7-6.88-4.09-7.74-4.19,1.54-.94,2.58-5.64,7.06-6.06C91.86,78.85,94,80.66,94.67,85.07Z"/><path class="cls-10" d="M89.52,88.68a4.83,4.83,0,0,0,.06-9.59c-3,.47-4.39,2.92-5.48,4.6a5,5,0,0,0,0,.77A4.84,4.84,0,0,0,89.52,88.68Z"/><path class="cls-11" d="M91.93,83.5a3,3,0,1,1-3.37-2.64A3,3,0,0,1,91.93,83.5Z"/><circle class="cls-12" cx="90.31" cy="82.91" r="0.99" transform="translate(-2.19 163.37) rotate(-83.57)"/><path class="cls-9" d="M125.62,84.92c.08,1.92,2.33,3.92,3.94,4.11,5.68.67,6.7-4,7.54-4.09-1.5-.92-2.52-5.5-6.88-5.91C128.36,78.86,126.29,80.62,125.62,84.92Z"/><path class="cls-10" d="M126.54,83.18a4.72,4.72,0,1,0,9.37,1.15,3.88,3.88,0,0,0,0-.76c-1.07-1.63-2.41-4-5.34-4.48A4.69,4.69,0,0,0,126.54,83.18Z"/><path class="cls-11" d="M134.16,84.11a3,3,0,1,1-2.57-3.29A2.95,2.95,0,0,1,134.16,84.11Z"/><circle class="cls-12" cx="132.76" cy="83.16" r="0.97" transform="translate(-14.26 29.07) rotate(-11.86)"/></g></g></g></svg>